# xmcd
#
# Track frame offsets: 
#        375
#        17456
#        32093
#        45933
#        58265
#        70264
#        81473
#        95111
#        107743
#        120806
#        135901
#        149345
#
# Disc length: 2096 seconds
#
# Revision: 0
# Processed by: cddbd v1.5.1PL0 Copyright (c) Steve Scherf et al.
# Submitted via: ExactAudioCopy v0.95a5
#
DISCID=9e082b0c
DTITLE=Stan Farlow - Hot Wheels
DYEAR=1976
DGENRE=Country
TTITLE0=Hot Wheels
TTITLE1=Kind Hearted Woman
TTITLE2=Blue Water
TTITLE3=Devil River
TTITLE4=The Bottle Told Me Lies
TTITLE5=Big City Hooker
TTITLE6=Georgia (You Did All You Could)
TTITLE7=1040 Blues
TTITLE8=Treeat Me Like A Man
TTITLE9=High Country
TTITLE10=January Day
TTITLE11=Lettin' It All Hang Out (From Now On)
EXTD=(c)1976 Checker LPS-3015
EXTT0=
EXTT1=
EXTT2=
EXTT3=
EXTT4=
EXTT5=
EXTT6=
EXTT7=
EXTT8=
EXTT9=
EXTT10=
EXTT11=
PLAYORDER=
